<?xml version="1.0" encoding="UTF-8" standalone="no"?>
<!DOCTYPE svg PUBLIC "-//W3C//DTD SVG 1.1//EN" "http://www.w3.org/Graphics/SVG/1.1/DTD/svg11.dtd">
<!-- Created with Vectornator (http://vectornator.io/) -->
<svg height="100%" stroke-miterlimit="10" style="fill-rule:nonzero;clip-rule:evenodd;stroke-linecap:round;stroke-linejoin:round;" version="1.1" viewBox="0 0 1080 1080" width="100%" xml:space="preserve" xmlns="http://www.w3.org/2000/svg" xmlns:vectornator="http://vectornator.io" xmlns:xlink="http://www.w3.org/1999/xlink">
<defs/>
<g id="Capa-1" vectornator:layerName="Capa 1">
<g opacity="1">
<path d="M542.188 198.062C540.639 197.938 539.08 197.952 537.531 198.125C534.905 198.418 532.302 199.116 529.719 199.656C526.565 200.315 523.427 200.992 520.281 201.688C503.857 205.319 487.518 209.347 471.344 213.969C442.049 222.339 413.225 232.568 385.688 245.656C379.837 248.437 374.033 251.335 368.312 254.375C364.054 256.638 359.769 258.925 355.688 261.5C351.714 264.006 347.921 266.776 344.312 269.781C320.735 289.419 305.639 316.843 285.094 339.281C282.891 341.693 283.057 345.422 285.469 347.625C287.881 349.828 291.609 349.662 293.812 347.25C304.689 335.311 314.06 322.172 323.875 309.375C332.28 298.416 341.12 287.586 351.75 278.688C354.961 275.999 358.338 273.525 361.875 271.281C365.709 268.85 369.749 266.702 373.75 264.562C379.867 261.291 386.073 258.185 392.344 255.219C418.773 242.716 446.341 232.845 474.406 224.719C490.349 220.103 506.464 216.046 522.656 212.406C526.383 211.569 530.108 210.765 533.844 209.969C535.463 209.624 537.102 209.16 538.75 208.969C540.543 208.76 542.348 208.939 544.094 209.375C547.748 210.288 551.136 212.188 554.312 214.156C558.96 217.036 563.315 220.336 568 223.156C570.339 224.564 572.769 225.778 575.031 227.312C578.592 229.728 581.829 232.556 585.125 235.312C590.286 239.629 595.148 244.21 599.438 249.406C611.525 264.049 619.054 281.729 625.688 299.344C629.847 310.388 634.01 321.626 636.375 333.219C637.239 337.456 637.742 341.776 638.281 346.062C641.601 372.431 643.785 398.916 647.125 425.281C647.763 430.314 649.053 435.238 649.812 440.25C650.421 444.268 650.69 448.357 651 452.406C651.577 459.935 651.938 467.483 652.125 475.031C652.235 479.465 652.245 483.879 652.312 488.312C652.344 490.354 652.634 492.428 652.5 494.469C652.364 496.533 651.882 498.627 651.5 500.656C650.84 504.165 650.067 507.626 649.219 511.094C646.376 522.716 642.557 534.104 638.062 545.188C635.129 552.421 631.912 559.543 628.5 566.562C626.551 570.572 624.481 574.507 622.5 578.5C619.132 585.286 616.29 592.329 612.75 599.031C610.433 603.418 607.798 607.625 605.094 611.781C600.658 618.599 595.875 625.225 590.938 631.688C583.884 640.919 576.395 649.779 568.906 658.656C564.951 663.345 561.101 668.152 556.969 672.688C552.023 678.117 546.696 683.176 541.219 688.062C537.892 691.03 534.531 693.967 531.125 696.844C528.013 699.472 524.806 702.046 521.312 704.156C517.465 706.48 513.29 708.334 509.188 710.156C501.75 713.461 494.113 716.297 486.344 718.719C480.887 720.42 475.37 721.917 469.812 723.25C467.066 723.909 464.299 724.638 461.5 725.031C457.299 725.621 453.012 725.524 448.781 725.594C442.052 725.705 435.323 725.868 428.594 725.969C414.679 726.176 400.797 725.948 386.906 725.062C376.087 724.373 365.294 723.306 354.625 721.344C350.221 720.534 345.829 719.584 341.5 718.438C337.336 717.335 333.213 716.038 329.094 714.781C322.673 712.822 316.29 710.827 309.906 708.75C305.928 707.455 301.887 706.255 297.938 704.875C293.992 703.496 290.102 701.935 286.188 700.469C281.875 698.854 277.592 697.273 273.406 695.344C264.245 691.122 255.534 685.984 246.812 680.938C243.156 678.822 239.529 676.647 236.156 674.094C232.59 671.394 229.322 668.272 226 665.281C221.689 661.401 217.388 657.29 214.469 652.219C211.273 646.667 210.232 640.235 209.438 633.969C208.921 629.893 208.218 625.799 208.125 621.688C208.053 618.498 208.281 615.308 208.438 612.125C208.593 608.963 208.705 605.789 208.812 602.625C209.164 592.244 209.492 581.809 211.719 571.625C213.487 563.535 216.271 555.7 218.938 547.875C220.286 543.918 221.509 539.94 222.812 535.969C224.448 530.989 226.266 526.051 227.781 521.031C231.493 508.736 234.481 496.219 238.75 484.094C241.514 476.244 244.694 468.522 249.156 461.469C251.869 457.182 254.961 453.129 258.188 449.219C260.378 446.565 262.626 443.965 265.094 441.562C267.041 439.667 269.064 437.876 271.219 436.219C271.848 435.735 272.49 435.23 273.188 434.844C274.85 433.922 276.734 433.508 278.562 433.062C280.641 432.556 282.727 432.037 284.812 431.562C288.961 430.618 293.113 429.874 297.344 429.406C299.084 429.214 300.876 429.133 302.625 429.062C307.232 428.878 311.83 428.952 316.438 429.094C323.508 429.311 330.638 429.467 337.625 430.656C340.694 431.179 343.741 431.926 346.781 432.594C352.33 433.812 357.856 435.121 363.375 436.469C374.886 439.28 386.411 442.379 397.625 446.219C410.171 450.514 422.367 455.709 434.938 459.938C440.76 461.896 446.806 463.058 452.688 464.812C457.81 466.341 462.844 468.226 467.875 470.031C474.498 472.408 481.127 474.818 487.719 477.281C498.314 481.241 508.925 485.17 519.375 489.5C529.424 493.664 539.32 498.234 549.469 502.156C552.286 503.245 555.246 504.103 558 505.344C560.059 506.272 561.878 507.637 563.969 508.5C565.798 509.255 567.676 509.45 569.375 508.312C572.335 506.332 573.053 502.309 573.719 499.094C574.057 497.461 574.602 495.815 574.781 494.156C575.017 491.982 574.571 489.798 574.531 487.625C574.449 483.17 574.483 478.706 574.469 474.25C574.454 478.707 574.384 483.169 574.438 487.625C574.463 489.792 574.905 491.958 574.656 494.125C574.466 495.778 573.91 497.436 573.562 499.062C572.89 502.209 572.169 506.199 569.25 508.125C567.26 509.438 565.092 508.784 563.094 507.781C561.402 506.933 559.847 505.852 558.125 505.062C555.065 503.659 551.77 502.72 548.656 501.438C537.689 496.918 526.908 491.947 515.938 487.438C505.925 483.322 495.802 479.481 485.688 475.625C478.335 472.822 470.941 470.083 463.531 467.438C460.033 466.189 456.553 464.867 453 463.781C447.144 461.993 441.108 460.805 435.312 458.812C422.77 454.502 410.611 449.252 398.094 444.875C386.861 440.947 375.319 437.772 363.781 434.875C357.913 433.401 352.026 431.961 346.125 430.625C342.418 429.786 338.739 428.89 334.969 428.375C328.506 427.492 321.949 427.305 315.438 427.062C309.41 426.838 303.131 426.689 297.125 427.312C292.272 427.816 287.497 428.692 282.75 429.812C280.793 430.275 278.828 430.706 276.875 431.188C275.233 431.592 273.586 432.058 272.094 432.875C270.487 433.754 269.063 434.997 267.656 436.156C265.85 437.645 264.094 439.221 262.438 440.875C259.713 443.595 257.238 446.545 254.812 449.531C252.051 452.932 249.399 456.437 247.031 460.125C242.417 467.312 239.1 475.204 236.219 483.219C231.857 495.354 228.773 507.878 224.969 520.188C223.428 525.174 221.598 530.053 219.938 535C218.445 539.446 217.018 543.916 215.469 548.344C212.87 555.771 210.235 563.219 208.5 570.906C206.043 581.791 205.706 592.988 205.25 604.094C205.142 606.713 205.022 609.32 204.875 611.938C204.691 615.206 204.418 618.473 204.469 621.75C204.506 624.17 204.799 626.54 205.094 628.938C205.364 631.14 205.598 633.361 205.875 635.562C206.683 641.979 207.87 648.431 211.094 654.125C214.376 659.923 219.302 664.563 224.188 669C227.303 671.829 230.316 674.778 233.656 677.344C237.572 680.352 241.814 682.875 246.062 685.375C255.334 690.83 264.645 696.334 274.5 700.688C278.199 702.321 282.005 703.681 285.781 705.125C289.325 706.48 292.834 707.91 296.406 709.188C300.772 710.749 305.226 712.128 309.625 713.594C315.622 715.592 321.655 717.487 327.688 719.375C331.856 720.679 336.004 722.039 340.219 723.188C344.662 724.398 349.164 725.416 353.688 726.281C364.541 728.357 375.548 729.5 386.562 730.281C400.587 731.275 414.6 731.639 428.656 731.531C435.388 731.48 442.143 731.339 448.875 731.281C453.345 731.243 457.838 731.371 462.281 730.781C465.677 730.33 469.044 729.474 472.375 728.688C477.661 727.44 482.897 726.013 488.094 724.438C496.107 722.008 504.008 719.184 511.688 715.844C516.044 713.949 520.471 711.988 524.562 709.562C529.271 706.771 533.481 703.234 537.656 699.719C540.751 697.113 543.818 694.499 546.844 691.812C552.07 687.173 557.158 682.349 561.906 677.219C566.571 672.178 570.906 666.807 575.375 661.594C583.858 651.697 592.313 641.792 600.156 631.375C607.078 622.182 613.838 612.673 619.312 602.531C622.943 595.806 625.886 588.75 629.344 581.938C631.371 577.944 633.474 573.979 635.469 569.969C639.571 561.718 643.411 553.333 646.844 544.781C651.448 533.308 655.347 521.537 658.188 509.5C659.043 505.876 659.785 502.26 660.438 498.594C660.671 497.285 660.867 496.398 660.969 495.094C661.146 492.81 660.885 490.503 660.875 488.219C660.861 485.037 660.871 481.87 660.844 478.688C660.738 466.493 660.408 454.232 659.156 442.094C658.582 436.528 657.177 431.097 656.406 425.562C656.01 422.716 655.755 419.856 655.438 417C654.704 410.409 654.009 403.813 653.312 397.219C651.915 383.994 650.647 370.75 649.188 357.531C648.589 352.109 647.979 346.696 647.312 341.281C646.904 337.959 646.453 334.631 645.812 331.344C644.398 324.083 642.311 316.884 639.969 309.875C637.65 302.938 635.169 296.052 632.562 289.219C625.623 271.029 617.138 253.216 604 238.625C599.904 234.076 595.376 230.081 590.719 226.125C587.594 223.471 584.448 220.79 581.062 218.469C578.194 216.502 575.079 214.94 572.156 213.062C564.043 207.85 556.317 201.271 546.781 198.844C545.274 198.46 543.736 198.187 542.188 198.062Z" fill="#507667" stroke="none"/>
</g>
<g opacity="1">
<path d="M484.531 135.5C483.055 135.5 481.564 135.618 480.156 135.938C483.305 135.237 486.75 135.634 489.938 135.781C492.82 135.915 495.679 135.87 498.562 135.812C503.511 135.713 508.491 135.553 513.438 135.812C526.484 136.496 539.458 138.508 552.312 140.75C560.637 142.202 568.973 143.743 577 146.438C581.806 148.051 586.379 150.214 591 152.281C596.001 154.519 601.017 156.752 606 159.031C613.741 162.572 621.449 166.232 628.906 170.344C633.712 172.993 638.416 175.82 643.094 178.688C645.827 180.363 648.55 182.071 651.281 183.75C653.02 184.819 654.744 185.861 656.375 187.094C657.881 188.233 659.257 189.549 660.656 190.812C662.292 192.29 663.935 193.794 665.562 195.281C670.445 199.742 675.284 204.241 680.062 208.812C684.543 213.098 688.96 217.46 693.406 221.781C698.728 226.953 704.028 232.17 708.75 237.906C712.614 242.6 715.836 247.701 719.156 252.781C722.41 257.759 725.679 262.723 728.906 267.719C734.633 276.584 740.115 285.606 745.438 294.719C749.744 302.093 753.936 309.528 757.719 317.188C760.326 322.467 762.643 327.861 764.938 333.281C774.118 354.968 783.233 376.694 791.25 398.844C793.167 404.141 795.059 409.439 796.938 414.75C798.158 418.202 799.539 421.647 800.375 425.219C801.403 429.61 802.054 434.129 802.875 438.562C804.259 446.03 805.647 453.485 806.938 460.969C808.15 468.002 809.258 475.057 810.25 482.125C810.788 485.96 811.416 489.818 811.625 493.688C811.891 498.613 811.505 503.578 811.344 508.5C811.201 512.844 811.246 517.185 811.281 521.531C811.381 533.877 811.709 546.217 811.438 558.562C811.158 571.31 810.299 584.058 809.5 596.781C808.449 613.514 807.123 630.259 805.406 646.938C804.002 660.581 802.624 674.212 798.688 687.406C797.536 691.264 796.122 695.049 794.781 698.844C792.948 704.033 791.117 709.209 789.219 714.375C782.382 732.978 774.853 751.35 765.312 768.75C756.111 785.531 745.335 801.408 734.312 817.031C730.85 821.938 727.353 826.823 723.875 831.719C720.047 837.108 716.267 842.475 712 847.531C704.667 856.22 696.386 864.076 688.312 872.062C678.817 881.457 669.184 890.739 659.125 899.531C652.197 905.586 645.012 911.305 637.812 917.031C617.492 933.192 596.544 948.964 573.562 961.188C558.93 968.97 543.45 974.979 527.906 980.656C521.414 983.027 514.883 985.33 508.375 987.656C506.203 988.433 504.043 989.213 501.875 990C500.056 990.66 498.283 991.28 496.375 991.625C493.115 992.214 489.77 992.227 486.469 992.312C483.441 992.391 480.433 992.496 477.406 992.594C467.088 992.928 456.764 993.335 446.438 993.219C440.484 993.152 434.525 992.907 428.594 992.375C412.88 990.965 397.31 987.935 382 984.188C373.301 982.058 364.601 979.804 356.062 977.094C349.396 974.978 342.806 972.566 336.312 969.969C326.556 966.067 317.03 961.647 307.594 957.031C297.117 951.907 286.761 946.544 276.5 941C264.506 934.52 252.591 927.918 240.719 921.219C215.38 906.92 190.438 891.445 168.938 871.688C157.525 861.201 147.193 849.54 137.844 837.188C129.296 825.894 121.541 813.985 114.844 801.5C112.623 797.361 110.51 793.165 108.594 788.875C105.637 782.257 103.124 775.437 99.9688 768.906C94.5615 757.715 87.7567 747.212 82.9062 735.75C81.199 731.716 79.8234 727.56 78.4375 723.406C76.7497 718.348 75.1552 713.251 73.6875 708.125C71.2486 699.607 69.1289 690.991 67.3438 682.312C66.3012 677.244 65.334 672.154 64.5938 667.031C62.1201 649.915 63.9925 632.515 64.0625 615.312C64.1414 595.908 63.6271 576.471 65.4688 557.125C66.0017 551.526 66.743 545.914 67.7188 540.375C68.4153 536.421 69.2932 532.521 70.125 528.594C71.1305 523.847 72.1052 519.094 73.0938 514.344C76.5275 497.843 79.9583 481.096 85.3125 465.094C88.1596 456.585 91.5681 448.28 94.9375 439.969C96.8478 435.256 98.6154 430.47 100.656 425.812C102.233 422.213 104.082 418.713 105.875 415.219C108.224 410.641 110.581 406.074 112.938 401.5C120.001 387.792 127.103 374.115 134.344 360.5C142.27 345.596 150.339 330.782 159.094 316.344C167.596 302.322 176.731 288.658 186.031 275.156C190.874 268.126 195.769 261.133 200.688 254.156C204.415 248.868 208.124 243.554 212.438 238.719C215.208 235.613 218.227 232.7 221.281 229.875C228.333 223.353 235.919 217.436 243.812 211.969C249.522 208.014 255.396 204.333 261.344 200.75C265.352 198.336 269.408 195.708 273.875 194.219C277.132 193.133 280.576 193.009 283.969 192.688C288.131 192.293 292.274 191.907 296.438 191.531C310.774 190.236 325.143 189.08 339.5 188.031C357.56 186.712 375.633 185.573 393.719 184.656C403.807 184.145 413.899 183.594 424 183.438C444.568 183.119 465.122 183.984 485.688 184.156C488.954 184.181 491.632 181.548 491.656 178.281C491.681 175.015 489.048 172.368 485.781 172.344C465.122 172.208 444.473 171.362 423.812 171.719C413.109 171.903 402.407 172.533 391.719 173.094C373.549 174.047 355.394 175.236 337.25 176.594C322.829 177.673 308.432 178.891 294.031 180.219C289.852 180.604 285.646 181.002 281.469 181.406C277.641 181.776 273.92 182.144 270.25 183.375C264.969 185.146 260.206 188.131 255.469 191C249.323 194.722 243.241 198.549 237.344 202.656C229.029 208.446 221.049 214.724 213.625 221.625C210.314 224.702 207.065 227.869 204.062 231.25C199.175 236.754 194.969 242.795 190.75 248.812C185.825 255.835 180.942 262.893 176.094 269.969C166.962 283.298 158.032 296.786 149.688 310.625C140.861 325.263 132.721 340.321 124.75 355.438C117.295 369.576 109.986 383.765 102.719 398C100.377 402.588 98.0535 407.19 95.7188 411.781C94.0725 415.019 92.411 418.258 90.9688 421.594C88.9117 426.351 87.1112 431.219 85.1875 436.031C81.7782 444.56 78.3733 453.115 75.5 461.844C73.2711 468.615 71.431 475.513 69.75 482.438C67.24 492.777 65.1267 503.194 63.0312 513.625C61.3532 521.978 59.4486 530.318 58.0312 538.719C57.0525 544.52 56.3276 550.359 55.8125 556.219C54.0854 575.865 54.6498 595.587 54.6562 615.281C54.6621 632.963 52.777 650.782 55.3438 668.375C56.1183 673.684 57.2038 678.971 58.3125 684.219C60.1921 693.115 62.3879 701.928 64.9375 710.656C66.5972 716.338 68.4293 721.962 70.3438 727.562C71.6897 731.5 73.0687 735.429 74.7188 739.25C79.7139 750.819 86.663 761.398 92.2188 772.688C95.3828 779.117 97.8755 785.857 100.844 792.375C102.875 796.835 105.122 801.199 107.469 805.5C114.459 818.311 122.528 830.517 131.406 842.094C141.123 854.765 151.856 866.704 163.688 877.438C186.042 897.718 211.884 913.497 238.156 928.125C249.768 934.59 261.459 940.935 273.188 947.188C283.562 952.718 294.036 958.05 304.625 963.156C314.237 967.792 323.942 972.248 333.875 976.156C340.532 978.776 347.263 981.186 354.094 983.312C363.211 986.15 372.497 988.47 381.781 990.688C401.225 995.332 421.143 998.673 441.156 999.156C453.312 999.45 465.45 998.868 477.594 998.406C481.04 998.275 484.49 998.176 487.938 998.062C491.103 997.958 494.286 997.833 497.406 997.25C501.857 996.419 506.077 994.509 510.312 992.969C517.361 990.405 524.405 987.859 531.438 985.25C547.733 979.203 563.926 972.677 579.125 964.188C601.117 951.904 621.278 936.622 640.875 920.875C648.104 915.067 655.328 909.264 662.281 903.125C672.742 893.889 682.725 884.112 692.594 874.25C700.371 866.478 708.287 858.823 715.344 850.375C719.663 845.205 723.505 839.695 727.375 834.188C730.831 829.27 734.279 824.366 737.719 819.438C748.749 803.635 759.529 787.585 768.719 770.625C778.262 753.012 785.786 734.408 792.594 715.594C794.659 709.886 796.671 704.173 798.656 698.438C799.812 695.1 801.007 691.766 802 688.375C805.931 674.956 807.297 661.112 808.656 647.25C810.359 629.878 811.612 612.456 812.625 595.031C813.33 582.91 814.071 570.767 814.281 558.625C814.502 545.864 814.046 533.103 813.938 520.344C813.904 516.415 813.827 512.49 813.938 508.562C814.079 503.566 814.449 498.561 814.156 493.562C813.899 489.177 813.161 484.781 812.531 480.438C811.503 473.349 810.281 466.302 809.031 459.25C807.705 451.762 806.296 444.283 804.875 436.812C804.109 432.786 803.485 428.705 802.531 424.719C801.53 420.53 799.858 416.484 798.406 412.438C796.502 407.13 794.569 401.824 792.625 396.531C784.824 375.287 775.916 354.482 767 333.688C764.513 327.889 762.04 322.085 759.219 316.438C755.089 308.172 750.461 300.163 745.75 292.219C740.692 283.69 735.482 275.273 730.062 266.969C726.45 261.433 722.791 255.927 719.156 250.406C716.155 245.848 713.181 241.329 709.688 237.125C704.541 230.932 698.732 225.326 692.938 219.75C688.884 215.849 684.864 211.933 680.781 208.062C675.576 203.128 670.286 198.25 664.969 193.438C662.338 191.057 659.78 188.536 656.938 186.406C654.913 184.89 652.72 183.594 650.562 182.281C647.823 180.614 645.09 178.937 642.344 177.281C638.026 174.679 633.677 172.101 629.25 169.688C621.758 165.602 614.023 161.981 606.25 158.469C600.701 155.961 595.13 153.499 589.562 151.031C585.473 149.219 581.409 147.375 577.156 145.969C569.095 143.304 560.728 141.792 552.375 140.375C539.501 138.191 526.497 136.248 513.438 135.625C508.486 135.389 503.514 135.565 498.562 135.688C495.334 135.767 492.132 135.8 488.906 135.656C487.477 135.593 486.007 135.5 484.531 135.5ZM480.156 135.938C478.073 136.411 476.225 137.641 474.312 138.531C476.227 137.651 478.073 136.401 480.156 135.938Z" fill="#507667" stroke="none"/>
</g>
<g opacity="1">
<path d="M450.469 347.688C449.707 347.792 448.952 348.052 448.25 348.469C445.442 350.137 444.519 353.785 446.188 356.594C448.006 359.629 450.064 362.471 452.125 365.344C454.415 368.535 456.763 371.811 458.188 375.5C459.209 378.145 459.703 381.051 460.312 383.812C461.181 387.747 461.968 391.698 462.719 395.656C465.238 408.95 467.214 422.34 469 435.75C470.172 444.547 471.293 453.333 472.5 462.125C472.919 465.177 473.373 468.232 473.812 471.281C474.012 472.662 474.266 474.045 474.375 475.438C474.553 477.707 474.332 479.981 474.25 482.25C474.154 484.901 474.126 487.566 474.094 490.219C474.003 497.77 474.119 505.397 472.906 512.875C471.908 519.03 469.579 524.848 467.312 530.625C465.872 534.295 464.47 537.899 462.531 541.344C460.561 544.844 458.595 548.367 456.531 551.812C454.504 555.196 452.273 558.569 449.312 561.219C446.718 563.54 443.702 565.358 440.719 567.125C437.342 569.125 434.136 570.817 430.375 572C424.344 573.896 418.072 574.698 411.875 575.844C405.998 576.93 400.138 578.672 394.125 578.781C391.596 578.827 389.044 578.578 386.531 578.312C381.561 577.787 376.621 576.931 371.719 575.969C369.635 575.56 367.552 575.132 365.469 574.719C364.3 574.487 363.1 574.33 361.969 573.938C359.897 573.219 357.937 572.048 355.969 571.094C353.044 569.676 350.11 568.296 347.188 566.875C342.851 564.766 338.557 562.596 334.344 560.25C332.237 559.077 330.169 557.879 328.188 556.5C320.598 551.219 314.037 544.495 307.969 537.562C303.263 532.186 298.675 526.627 294.875 520.562C293.102 517.733 291.309 514.803 290.312 511.594C289.218 508.07 288.919 504.331 288.469 500.688C287.873 495.861 287.258 490.999 287.469 486.125C287.768 479.217 289.72 472.312 291.781 465.75C292.785 462.555 293.858 459.409 294.969 456.25C296.138 452.926 297.358 449.626 299.062 446.531C301.026 442.967 303.64 439.829 306.125 436.625C312.064 428.966 318.137 421.305 325.344 414.781C331.033 409.631 337.428 405.369 344 401.438C348.683 398.637 353.448 396.015 358.188 393.312C363.258 390.421 368.267 387.389 373.375 384.562C380.638 380.544 387.988 376.701 395.094 372.406C399.465 369.764 403.322 366.356 407.594 363.562C415.249 358.556 423.447 354.53 431.594 350.406C423.362 354.387 415.1 358.282 407.344 363.156C402.615 366.128 398.312 369.69 393.438 372.438C386.21 376.511 378.817 380.249 371.5 384.156C366.778 386.678 362.135 389.401 357.438 391.969C352.105 394.883 346.745 397.711 341.5 400.781C335.296 404.412 329.268 408.359 323.844 413.094C316.412 419.581 310.105 427.244 303.938 434.906C301.297 438.187 298.543 441.399 296.438 445.062C294.592 448.274 293.26 451.696 291.969 455.156C290.934 457.93 289.9 460.7 288.938 463.5C286.46 470.704 284.14 478.261 283.656 485.906C283.334 490.994 283.851 496.101 284.375 501.156C284.816 505.41 285.12 509.725 286.469 513.812C287.169 515.934 288.184 517.917 289.25 519.875C290.37 521.933 291.587 523.949 292.875 525.906C296.941 532.088 301.608 537.895 306.469 543.469C312.049 549.867 318.081 556.001 324.969 561C331.032 565.401 337.85 568.835 344.5 572.25C347.755 573.921 351.024 575.551 354.281 577.219C356.097 578.148 357.863 579.225 359.781 579.938C361.191 580.461 362.692 580.708 364.156 581.031C366.652 581.583 369.157 582.149 371.656 582.688C378.972 584.264 386.648 585.845 394.156 585.875C400.967 585.902 407.619 584.109 414.312 583.094C420.474 582.159 426.682 581.413 432.688 579.688C435.202 578.965 437.667 578.062 440.031 576.938C442.109 575.949 444.121 574.785 446.125 573.656C449.68 571.653 453.196 569.489 456.188 566.688C461.533 561.682 465.031 555.16 468.781 548.969C470.34 546.396 471.874 543.852 473.156 541.125C474.513 538.239 475.594 535.208 476.781 532.25C479.093 526.488 481.322 520.712 482.5 514.594C484.111 506.226 484.229 497.646 484.5 489.156C484.568 487.022 484.664 484.882 484.781 482.75C484.929 480.072 485.141 477.371 484.969 474.688C484.842 472.719 484.534 470.767 484.281 468.812C483.933 466.119 483.582 463.415 483.25 460.719C482.166 451.917 481.117 443.114 480.031 434.312C478.308 420.335 476.4 406.389 473.875 392.531C473.132 388.453 472.303 384.397 471.438 380.344C470.793 377.325 470.186 374.27 469.094 371.375C466.185 363.665 460.507 357.549 456.375 350.531C455.123 348.425 452.753 347.375 450.469 347.688Z" fill="#507667" stroke="none"/>
</g>
</g>
</svg>
