<?xml version="1.0" encoding="utf-8"?>
<!-- Generator: Adobe Illustrator 26.0.2, SVG Export Plug-In . SVG Version: 6.00 Build 0)  -->
<svg version="1.1" id="Warstwa_3" xmlns="http://www.w3.org/2000/svg" xmlns:xlink="http://www.w3.org/1999/xlink" x="0px" y="0px"
	 viewBox="0 0 430 430" style="enable-background:new 0 0 430 430;" xml:space="preserve">
<style type="text/css">
	.st0{fill:url(#SVGID_1_);}
	.st1{fill:url(#SVGID_00000142879936607302252370000006949447841802789306_);}
	.st2{fill:url(#SVGID_00000051363103968436462860000009983291680188906916_);}
	.st3{fill:url(#SVGID_00000065073332975342027200000001127103577237265026_);}
	.st4{fill:url(#SVGID_00000130612709608042118600000007403200436486044607_);}
	.st5{fill:url(#SVGID_00000149367923306398660350000008263876043381874612_);}
	.st6{fill:url(#SVGID_00000059308004676434144730000006193067122464853665_);}
	.st7{fill:url(#SVGID_00000039838057455665879060000007731656397524801975_);}
	.st8{fill:url(#SVGID_00000092415036237931705380000007441665760782550437_);}
	.st9{fill:url(#SVGID_00000108995606672963457080000003877542138786259900_);}
	.st10{fill:url(#SVGID_00000040554212893728829410000011968501093838895007_);}
	.st11{fill:url(#SVGID_00000099645612086676065640000009524853461139644863_);}
	.st12{fill:url(#SVGID_00000142859078626578052360000011300830876780688543_);}
	.st13{fill:url(#SVGID_00000028292086645706129850000004443302759403692701_);}
	.st14{fill:url(#SVGID_00000174585671371548262090000016620247171857736587_);}
	.st15{fill:url(#SVGID_00000080181050771249299260000014301031401126269593_);}
	.st16{fill:url(#SVGID_00000073704610927181928320000012967928814453093794_);}
	.st17{fill:url(#SVGID_00000055666532032300004040000016571970216572660403_);}
	.st18{fill:url(#SVGID_00000013162964230787842570000001730867891799719337_);}
	.st19{fill:url(#SVGID_00000052091203325042788530000008711220940122217895_);}
	.st20{fill:url(#SVGID_00000159434573338192866540000016713141948478243981_);}
	.st21{fill:url(#SVGID_00000050658066307669706960000011267572121218510488_);}
	.st22{fill:url(#SVGID_00000174578048520600886890000001427898474437772956_);}
	.st23{fill:url(#SVGID_00000137842621282013202860000011750044218192872096_);}
	.st24{fill:url(#SVGID_00000088129391561332022710000003974684149137705135_);}
	.st25{fill:url(#SVGID_00000181056304272324561390000018268264373109051314_);}
	.st26{fill:url(#SVGID_00000158025380808892344490000010720889524284630196_);}
	.st27{fill:url(#SVGID_00000147208274142511636200000007790898352931889036_);}
	.st28{fill:url(#SVGID_00000150090058651602458220000015804067614041135515_);}
	.st29{fill:url(#SVGID_00000095318511150663532240000015763020111258690720_);}
</style>
<linearGradient id="SVGID_1_" gradientUnits="userSpaceOnUse" x1="109.781" y1="120.2621" x2="343.9263" y2="354.4074">
	<stop  offset="0" style="stop-color:#cb5eee"/>
	<stop  offset="1" style="stop-color:#4be1ec"/>
</linearGradient>
<path class="st0" d="M108.67,295.41c3.48,0,6.3,2.82,6.3,6.3s-2.82,6.3-6.3,6.3c-30.88,0-55.99-25.12-55.99-55.99
	c0-3.48,2.82-6.3,6.3-6.3s6.3,2.82,6.3,6.3C65.28,275.94,84.75,295.41,108.67,295.41z M413.36,252.02
	c0,43.94-35.75,79.69-79.69,79.69s-79.69-35.75-79.69-79.69c0-34.51,22.06-63.96,52.82-75.01l-8.37-30.13l-72.43,108.64
	c-0.06,0.1-0.14,0.18-0.21,0.27c-0.09,0.12-0.17,0.24-0.27,0.35c-0.11,0.13-0.24,0.25-0.36,0.37c-0.06,0.06-0.12,0.13-0.18,0.18
	c-0.14,0.13-0.29,0.24-0.44,0.35c-0.06,0.04-0.11,0.09-0.16,0.13c-0.15,0.11-0.31,0.2-0.47,0.29c-0.06,0.04-0.13,0.08-0.19,0.12
	c-0.15,0.08-0.3,0.14-0.45,0.21c-0.08,0.04-0.16,0.08-0.25,0.11c-0.14,0.05-0.29,0.09-0.43,0.14c-0.1,0.03-0.2,0.07-0.3,0.09
	c-0.15,0.04-0.31,0.06-0.47,0.09c-0.1,0.02-0.19,0.04-0.28,0.05c-0.26,0.03-0.52,0.05-0.78,0.05c0,0-0.01,0-0.01,0h-32.66
	c-3.23,41-37.6,73.39-79.42,73.39c-43.94,0-79.69-35.75-79.69-79.69s35.75-79.69,79.69-79.69c15.86,0,30.64,4.68,43.07,12.7
	l21.73-28.55l-19.83-45.25h-19.62c-3.48,0-6.3-2.82-6.3-6.3s2.82-6.3,6.3-6.3h40.03c3.48,0,6.3,2.82,6.3,6.3s-2.82,6.3-6.3,6.3
	h-6.66l17.04,38.89L293.2,127.1l-4.86-20.4c-0.45-1.88-0.01-3.85,1.18-5.36c1.2-1.51,3.02-2.4,4.94-2.4h31.37
	c10.83,0,19.64,8.81,19.64,19.64c0,10.83-8.81,19.64-19.64,19.64c-3.48,0-6.3-2.82-6.3-6.3s2.82-6.3,6.3-6.3
	c3.88,0,7.04-3.16,7.04-7.04c0-3.88-3.16-7.04-7.04-7.04h-23.39l4.48,18.81l12.04,43.36c4.77-0.89,9.68-1.38,14.71-1.38
	C377.62,172.33,413.36,208.08,413.36,252.02z M175.46,258.32h-66.78c-2.39,0-4.58-1.36-5.65-3.5c-1.06-2.15-0.82-4.71,0.63-6.61
	l40.43-53.12c-10.29-6.42-22.42-10.15-35.42-10.15c-36.99,0-67.09,30.1-67.09,67.09s30.1,67.09,67.09,67.09
	C143.54,319.1,172.27,292.36,175.46,258.32z M154.11,202.71l-32.73,43h54.07C173.87,228.77,165.96,213.64,154.11,202.71z
	 M211.26,245.72l-32.1-75.92l-17.4,22.86c14.84,13.29,24.67,32.04,26.32,53.06H211.26z M287.01,141.29l-97.5,20.63l32.5,76.87
	L287.01,141.29z M400.76,252.02c0-36.99-30.1-67.09-67.09-67.09c-3.86,0-7.64,0.35-11.32,0.97l17.9,64.43
	c0.93,3.35-1.03,6.82-4.38,7.76c-0.56,0.16-1.13,0.23-1.69,0.23c-2.76,0-5.29-1.83-6.07-4.62l-17.92-64.52
	c-25.44,9.54-43.6,34.1-43.6,62.84c0,36.99,30.1,67.09,67.09,67.09S400.76,289.01,400.76,252.02z M333.67,295.41
	c-23.93,0-43.39-19.47-43.39-43.39c0-3.48-2.82-6.3-6.3-6.3s-6.3,2.82-6.3,6.3c0,30.87,25.12,55.99,55.99,55.99
	c3.48,0,6.3-2.82,6.3-6.3S337.15,295.41,333.67,295.41z"/>
</svg>
