<svg width="430" height="430" viewBox="0 0 430 430" fill="none" xmlns="http://www.w3.org/2000/svg">
<path d="M192.3 286C189 286 186.3 283.3 186.3 280V209.8C186.3 206.5 189 203.8 192.3 203.8C195.6 203.8 198.3 206.5 198.3 209.8V280C198.3 283.3 195.7 286 192.3 286Z" fill="#c74b16"/>
<path d="M264.6 60.5C266.5 57.8 265.9 54.1 263.2 52.1C260.5 50.2 256.8 50.8 254.8 53.5L214.8 109.2L174.8 53.5C172.9 50.8 169.1 50.2 166.4 52.1C163.7 54 163.1 57.8 165 60.5L207.4 119.5L187.5 147.2C185.6 149.9 186.2 153.6 188.9 155.6C190 156.4 191.2 156.7 192.4 156.7C194.3 156.7 196.1 155.8 197.3 154.2L219.7 123.1L264.6 60.5Z" fill="#c74b16"/>
<path d="M192.3 180.3H146.1C142.8 180.3 140.1 177.6 140.1 174.3C140.1 171 142.8 168.3 146.1 168.3H192.3C195.6 168.3 198.3 171 198.3 174.3C198.3 177.6 195.7 180.3 192.3 180.3Z" fill="#c79816"/>
<path d="M283.4 191.7H237.2C233.9 191.7 231.2 189 231.2 185.7C231.2 182.4 233.9 179.7 237.2 179.7H283.4C286.7 179.7 289.4 182.4 289.4 185.7C289.4 189 286.7 191.7 283.4 191.7Z" fill="#c79816"/>
<path d="M283.4 156.7H146.2C142.9 156.7 140.2 154 140.2 150.7C140.2 147.4 142.9 144.7 146.2 144.7H283.4C286.7 144.7 289.4 147.4 289.4 150.7C289.4 154 286.7 156.7 283.4 156.7Z" fill="#c79816"/>
<path d="M283.4 215.8H146.2C142.9 215.8 140.2 213.1 140.2 209.8C140.2 206.5 142.9 203.8 146.2 203.8H283.4C286.7 203.8 289.4 206.5 289.4 209.8C289.4 213.1 286.7 215.8 283.4 215.8Z" fill="#c79816"/>
<path d="M346.5 279.6L335.2 121.5C335.1 86.2 308.8 56.5 273.9 52.4C254.4 50.2 234.6 49 215 49C214.9 49 214.9 49 214.8 49C214.7 49 214.7 49 214.6 49C195 49 175.2 50.2 155.7 52.4C120.8 56.5 94.4 86.2 94.3 121.5L84 279.6C83.9 281.3 84.5 282.9 85.6 284.1C86.7 285.3 88.3 286 90 286H140.1V375.8C140.1 379.1 142.8 381.8 146.1 381.8H283.4C286.7 381.8 289.4 379.1 289.4 375.8V286H340.4C342.1 286 343.7 285.3 344.8 284.1C346 282.9 346.6 281.2 346.5 279.6ZM289.5 274V126C289.5 122.7 286.8 120 283.5 120C280.2 120 277.5 122.7 277.5 126V209C277.5 209.1 277.5 209.2 277.5 209.3V369.7H152.1V209.3C152.1 209.1 152.1 208.9 152.1 208.7V126C152.1 122.7 149.4 120 146.1 120C142.8 120 140.1 122.7 140.1 126V274H96.4L106.3 122.1C106.3 122 106.3 121.8 106.3 121.7C106.3 92.4 128.1 67.7 157 64.3C176.1 62.1 195.4 61 214.5 61C214.6 61 214.6 61 214.7 61H214.8H214.9C234 61 253.4 62.1 272.4 64.3C301.3 67.7 323.1 92.3 323.1 121.7C323.1 121.8 323.1 122 323.1 122.1L334.1 274H289.5Z" fill="#c74b16"/>
</svg>
